<?xml version="1.0" encoding="utf-8"?>
<!-- Generator: Adobe Illustrator 22.0.0, SVG Export Plug-In . SVG Version: 6.00 Build 0)  -->
<svg version="1.1" id="Ebene_1" xmlns="http://www.w3.org/2000/svg" xmlns:xlink="http://www.w3.org/1999/xlink" x="0px" y="0px"
	 viewBox="0 0 55.4 54.7" style="enable-background:new 0 0 55.4 54.7;" xml:space="preserve">
<g>
	<g transform="translate(0.000000,506.000000) scale(0.100000,-0.100000)">
		<path d="M0,4803.8v-256.2h60.5h60.5v8.6v8.6H69.2H17.3v207.6V4980h259.5h259.5v-207.6v-207.6h-51.9h-51.9v-8.6v-8.6H493h60.5
			v256.2V5060H276.8H0V4803.8z M138.4,5023.2v-25.9H77.8H17.3v25.9v25.9h60.5h60.5V5023.2z M536.2,5023.2v-25.9H345.9H155.7v25.9
			v25.9h190.3h190.3V5023.2z"/>
		<path d="M34.6,5023.2v-8.6h8.6h8.6v8.6v8.6h-8.6h-8.6V5023.2z"/>
		<path d="M69.2,5023.2v-8.6h8.6h8.6v8.6v8.6h-8.6h-8.6V5023.2z"/>
		<path d="M103.8,5023.2v-8.6h8.6h8.6v8.6v8.6h-8.6h-8.6V5023.2L103.8,5023.2z"/>
		<path d="M173,5023.2v-8.6h173h173v8.6v8.6h-173H173V5023.2z"/>
		<path d="M34.6,4772.4v-190.3h34.6h34.6v8.6v8.6H77.8H51.9v173v173h224.9h224.9v-173v-173h-25.9h-25.9v-8.6v-8.6h34.6h34.6v190.3
			v190.3H276.8H34.6V4772.4z"/>
		<path d="M250.8,4884.9v-8.6h8.6h8.6v-8.6c0-9.8,0.9-9.1-11.9-10.3c-29.4-2.8-65.7-18.5-88.8-38.4l-6.1-5.3l-7.4,7.5l-7.5,7.6
			l3.1,3.2l3.1,3.3l-6.2,6.2l-6.2,6.2l-12.7-12.8l-12.8-12.6l6.2-6.2l6.2-6.2l3.3,3.1l3.2,3.1l7.6-7.5l7.5-7.4l-5.3-6.1
			c-7.4-8.5-16.5-22.8-22.1-34.2c-30.5-62.5-21.1-133.5,24.6-187.5c34.9-41.3,91.6-64.6,144.4-59.7c84.3,7.9,150.1,73.6,157.9,157.9
			c2.2,22.7-1,47.2-8.8,69.8c-6.5,18.5-18.6,39.9-30.3,53.5l-5.3,6.1l7.5,7.4l7.6,7.5l3.2-3.1l3.3-3.1l6.2,6.2l6.2,6.2l-12.8,12.6
			l-12.6,12.8l-6.2-6.2l-6.2-6.2l3.1-3.3l3.1-3.2l-7.5-7.6l-7.4-7.5l-6.1,5.3c-23,19.9-59.2,35.6-88.8,38.4
			c-12.8,1.2-11.9,0.4-11.9,10.3v8.6h8.6h8.6v8.6v8.6h-25.9h-25.9V4884.9z M309.4,4838.5c30.3-6.5,55.8-20.4,77.7-42.3
			c21.7-21.6,35.6-47.3,42.3-78.2c3.5-16.1,3.5-48.3,0-64.2c-6.7-30.9-20.5-56.4-42.4-78.2c-21.7-21.8-47.2-35.7-78.2-42.4
			c-15.9-3.5-48.1-3.5-64.2,0c-30.8,6.7-56.5,20.5-78.2,42.3c-22.1,22.1-35.7,47.2-42.4,78.3c-3.5,16-3.5,48.2,0,64.2
			c10.4,47.8,39.6,85.8,82.3,107.4c14.8,7.4,31.6,12.3,52.5,15.6C267.2,4842.2,299.2,4840.6,309.4,4838.5z"/>
		<path d="M260,4823.1c-56.3-7.7-103.3-49.5-117.4-104.6c-6.8-26.5-4.6-56.7,5.8-82.8c16.5-41.2,53.2-73.3,95.8-83.8
			c30.7-7.7,64.6-4,92.2,9.8c26.9,13.5,51.1,37.7,64.6,64.6c4.4,8.9,10.2,26.4,12,36.9c2.2,11.9,1.8,36.2-0.5,48.1
			c-11.2,55-53.8,98.2-108.2,109.8C292.9,4823.7,270.7,4824.6,260,4823.1z M307,4803.5c40.8-10.7,71.6-39.2,84.8-78.7
			c6.3-18.8,7.7-45.8,3.3-65.8c-9.9-45.2-46.2-81.4-91.4-91.4c-12.5-2.7-34.2-3.2-46.9-1.2c-49.4,8.1-87.4,44-98.6,93.1
			c-2.8,12.1-2.8,39.6-0.1,52.4c8.4,39,36.3,72.2,72.5,86.4c9.4,3.7,15.1,5.2,30.9,8.1c1.5,0.3,10.1,0.3,18.9,0.1
			C293.4,4806.2,298.8,4805.6,307,4803.5z"/>
		<path d="M268.1,4781.1v-8.6h8.6h8.6v8.6v8.6h-8.6h-8.6V4781.1z"/>
		<path d="M207.6,4746.5v-8.6h8.6h8.6v8.6v8.6h-8.6h-8.6V4746.5z"/>
		<path d="M328.6,4746.5v-8.6h8.6h8.7v8.6v8.6h-8.6h-8.6L328.6,4746.5L328.6,4746.5z"/>
		<path d="M270.8,4701.6c-1.7-0.9-4.8-3.3-6.7-5.5c-6.4-7.2-5.9-14.3,1.3-21.5c7.4-7.4,14.2-7.7,21.9-1l4.3,3.7h27.1h27.1v8.6v8.6
			h-27.4h-27.5l-2.4,2.6c-3,3.2-8.8,6.1-12.2,6.1C275.2,4703.2,272.7,4702.5,270.8,4701.6z"/>
		<path d="M173,4685.9v-8.7h8.6h8.6v8.6v8.6h-8.6H173V4685.9z"/>
		<path d="M363.2,4685.9v-8.7h8.6h8.6v8.6v8.6h-8.6h-8.6V4685.9z"/>
		<path d="M207.6,4625.4v-8.6h8.6h8.6v8.6v8.6h-8.6h-8.6V4625.4z"/>
		<path d="M328.6,4625.4v-8.6h8.6h8.7v8.6v8.6h-8.6h-8.6L328.6,4625.4L328.6,4625.4z"/>
		<path d="M268.1,4590.8v-8.6h8.6h8.6v8.6v8.6h-8.6h-8.6V4590.8z"/>
	</g>
</g>
</svg>
